<svg id="Layer_1" data-name="Layer 1" xmlns="http://www.w3.org/2000/svg" viewBox="0 0 275.708 26.985"><defs><style>.cls-1{fill:#fff;}</style></defs><title>CISL-contemp-logo-white</title><path class="cls-1" d="M290.848,32.61a2.068,2.068,0,0,0-1.649-2.065,1.965,1.965,0,0,0,1.453-1.954c0-1.27-.989-2.2-2.773-2.2h-3.518v8.526h3.677c1.771,0,2.81-.952,2.81-2.308M288.9,28.848c0,.7-.464,1.062-1.27,1.062h-1.563V27.773h1.563c.806,0,1.27.391,1.27,1.075m.208,3.554c0,.721-.489,1.124-1.319,1.124h-1.722v-2.3h1.685c.831,0,1.356.439,1.356,1.172m-8.733-.476h-2.468l1.234-3.567Zm1.026,2.992h1.807l-3.066-8.538h-1.991l-3.066,8.538h1.8l.562-1.624h3.4Zm-11.4-8.526v8.526h4.52V33.563h-2.81V26.392Zm-4.385,6.059c0-3-4.373-2.052-4.373-3.762,0-.7.5-1.026,1.173-1a1.124,1.124,0,0,1,1.221,1.014h1.881c-.11-1.539-1.307-2.431-3.053-2.431s-3,.929-3,2.468c-.012,3.09,4.385,1.978,4.385,3.823,0,.611-.476,1.038-1.283,1.038a1.169,1.169,0,0,1-1.294-1.136h-1.833c.025,1.613,1.393,2.541,3.164,2.541,1.942,0,3.017-1.209,3.017-2.553m-16.942,2.467h1.71V29.373l2.3,5.545h1.294l2.285-5.545v5.545h1.71V26.392h-1.93l-2.712,6.34-2.712-6.34h-1.942Zm-1.551-8.538h-4.947v8.538h4.947V33.526h-3.237v-2.26h2.87V29.91h-2.87V27.773h3.237Zm-12.447,1.393h2.272v7.145h1.71V27.773h2.272V26.392h-6.254Zm-1.026,4.678c0-3-4.373-2.052-4.373-3.762,0-.7.5-1.026,1.173-1a1.124,1.124,0,0,1,1.221,1.014h1.881c-.11-1.539-1.307-2.431-3.053-2.431s-3,.929-3,2.468c-.013,3.09,4.385,1.978,4.385,3.823,0,.611-.477,1.038-1.283,1.038a1.171,1.171,0,0,1-1.3-1.136h-1.832C227.5,34.076,228.87,35,230.641,35c1.942,0,3.017-1.209,3.017-2.553m-11.543-.5v2.968h1.71V31.95l2.883-5.558H224.8l-1.82,3.9-1.832-3.9h-1.93Zm-3.664.5c0-3-4.373-2.052-4.373-3.762,0-.7.5-1.026,1.172-1a1.126,1.126,0,0,1,1.222,1.014h1.881c-.11-1.539-1.307-2.431-3.054-2.431s-3,.929-3,2.468c-.012,3.09,4.385,1.978,4.385,3.823,0,.611-.476,1.038-1.282,1.038a1.171,1.171,0,0,1-1.295-1.136H212.27c.024,1.613,1.392,2.541,3.164,2.541,1.942,0,3.017-1.209,3.017-2.553M204.835,26.38v5.863l-3.872-5.863h-1.71v8.538h1.71V29.067l3.872,5.851h1.71V26.38Zm-13.827,4.251a2.616,2.616,0,1,1,5.215,0,2.617,2.617,0,1,1-5.215,0m6.974,0A4.367,4.367,0,1,0,193.622,35a4.258,4.258,0,0,0,4.36-4.373m-11.714,4.287h1.71V26.392h-1.71Zm-7.5-7.145h2.272v7.145h1.71V27.773h2.272V26.392h-6.254Zm-3.53,4.153h-2.467l1.234-3.567Zm1.026,2.992h1.808l-3.066-8.538h-1.991l-3.066,8.538h1.8l.562-1.624h3.4Zm-16.771,0H161.2V29.373l2.3,5.545H164.8l2.284-5.545v5.545h1.71V26.392h-1.93l-2.712,6.34-2.711-6.34h-1.943Zm-7.829-8.526v8.526h1.71V31.6h.806l1.881,3.322h1.979L156,31.462a2.463,2.463,0,0,0,1.942-2.456c0-1.429-1.026-2.614-3.078-2.614Zm4.519,2.651c0,.77-.427,1.27-1.38,1.27h-1.429v-2.5H154.8c.953,0,1.38.477,1.38,1.234m-12.764,1.588a2.616,2.616,0,1,1,5.216,0,2.618,2.618,0,1,1-5.216,0m6.975,0A4.367,4.367,0,1,0,146.033,35a4.258,4.258,0,0,0,4.361-4.373M135.6,34.918h1.71v-3.6h2.724V29.959h-2.724V27.773h3.555V26.392H135.6Zm-3.4-8.538v5.863l-3.872-5.863h-1.71v8.538h1.71V29.067l3.872,5.851h1.71V26.38Zm-8.978,8.538h1.71V26.392h-1.71Z" transform="translate(-15.14 -11.015)"/><path class="cls-1" d="M233.967,21.156a1.359,1.359,0,0,1-1.514-1.295,1.646,1.646,0,0,1,1.184-1.49l2.1,2.076a2.5,2.5,0,0,1-1.771.709m2.932-5.277a2.088,2.088,0,0,0-2.37-2.162c-1.563,0-2.5.9-2.5,2.064a2.324,2.324,0,0,0,.623,1.576,2.814,2.814,0,0,0-1.881,2.6c0,1.588,1.246,2.614,3.151,2.614a4.149,4.149,0,0,0,2.895-1.063l.929.916h2.1l-2.065-2.04a10.163,10.163,0,0,0,.526-.9l.855-1.5h-1.784l-.7,1.16a.645.645,0,0,1-.061.1l-2.15-2.125c-.537-.562-.782-.929-.782-1.344a.734.734,0,0,1,.794-.721.718.718,0,0,1,.758.831ZM222.669,13.9v8.526h4.519V21.07h-2.809V13.9Zm-3.982,5.534h-2.468l1.234-3.567Zm1.026,2.992h1.808l-3.066-8.538h-1.991L213.4,22.426h1.8l.562-1.624h3.4Zm-9.186-8.538v5.863l-3.872-5.863h-1.71v8.538h1.71V16.575l3.872,5.851h1.71V13.888ZM196.7,18.139a2.616,2.616,0,1,1,5.216,0,2.618,2.618,0,1,1-5.216,0m6.975,0a4.367,4.367,0,0,0-8.734,0,4.367,4.367,0,1,0,8.734,0m-11.714,4.287h1.71V13.9h-1.71Zm-7.5-7.146h2.272v7.146h1.71V15.28h2.272V13.9h-6.254Zm-3.53,4.154h-2.468l1.234-3.567Zm1.026,2.992h1.808L180.7,13.888h-1.991l-3.066,8.538h1.8L178,20.8h3.4Zm-13.29-7.146h2.272v7.146h1.71V15.28h2.272V13.9h-6.254Zm-8.086,3.885a3.155,3.155,0,0,0,3.408,3.347,3.211,3.211,0,0,0,3.481-3.347V13.9h-1.722v5.277a1.729,1.729,0,1,1-3.457,0V13.9h-1.71ZM159.4,16.539c0-1.478-1.026-2.639-3.078-2.639h-3.139v8.526h1.71V19.153h1.429c2.2,0,3.078-1.32,3.078-2.614m-4.507,1.233V15.293h1.356c.965,0,1.392.464,1.392,1.246,0,.757-.427,1.233-1.392,1.233ZM142.2,22.426h1.71V16.881l2.3,5.545H147.5l2.284-5.545v5.545h1.71V13.9h-1.93l-2.711,6.34L144.14,13.9H142.2Zm-8.245-4.287a2.616,2.616,0,1,1,5.216,0,2.618,2.618,0,1,1-5.216,0m6.975,0a4.367,4.367,0,0,0-8.734,0,4.367,4.367,0,1,0,8.734,0m-18.115.012a4.2,4.2,0,0,0,4.324,4.349,4.005,4.005,0,0,0,4.007-2.761h-1.967a2.14,2.14,0,0,1-2.052,1.234,2.555,2.555,0,0,1-2.553-2.822,2.548,2.548,0,0,1,2.553-2.822,2.149,2.149,0,0,1,2.052,1.222h1.967a4.019,4.019,0,0,0-4.007-2.761,4.214,4.214,0,0,0-4.324,4.361" transform="translate(-15.14 -11.015)"/><path class="cls-1" d="M50,15.905c-4.989.018-8.064,2.285-8.044,8.069.022,6.006,3.785,9.711,9.791,9.69a12.312,12.312,0,0,0,6.6-1.962l.012,3.178a14.951,14.951,0,0,1-6.954,1.582c-7.024.025-12.79-4.022-12.82-12.476-.027-7.627,4.886-10.886,10.925-10.908a34.6,34.6,0,0,1,8.807,1.336l.013,3.4C56.676,16.644,52.765,15.9,50,15.905" transform="translate(-15.14 -11.015)"/><path class="cls-1" d="M71.077,17.006c-1.247,2.9-2.449,5.708-3.735,8.6l7.817-.027c-1.345-2.887-2.737-5.69-4.082-8.577m8.112,18.626a8.689,8.689,0,0,0-1-2.825c-.692-1.555-1.422-2.94-2.114-4.5l-9.762.034c-.68,1.592-1.362,2.983-2.08,4.542a14.993,14.993,0,0,0-.905,2.8l-4.18.015a10.661,10.661,0,0,0,1.591-2.993c.831-1.941,6.393-14.419,7.225-16.36a11.844,11.844,0,0,0,.982-2.61l4.547-.016a10.263,10.263,0,0,0,.924,2.571c.845,1.935,6.342,14.278,7.226,16.245,1.268,2.761,1.78,3.077,1.78,3.077Z" transform="translate(-15.14 -11.015)"/><path class="cls-1" d="M91.7,15.63c-1.221,0-2.4.167-3.7.3L88.031,23c.8.061,1.526.122,2.327.119,3.356-.012,6.212-.669,6.2-3.942-.009-2.7-1.881-3.553-4.855-3.542m7.2,19.932c-.536-.538-1.109-1.077-1.683-1.615L88.04,25.876l.026,7.087a8.993,8.993,0,0,0,.276,2.637l-3.742.014a7.968,7.968,0,0,0,.22-2.639l-.06-16.684a18.275,18.275,0,0,0-.2-2.605c2.86-.01,5.342-.4,8.126-.411,4.27-.016,7.479,1.5,7.493,5.376.014,3.94-2.952,6.3-7.984,6.924,2.869,2.437,5.738,4.937,8.607,7.406a25.923,25.923,0,0,0,3.25,2.563Z" transform="translate(-15.14 -11.015)"/><path class="cls-1" d="M31.459,35.705s-.54-.921-1.778-2.667c-3.714-5.08-7.4-10.223-11.08-15.335V32.974a11.553,11.553,0,0,0,.158,2.731H15.14a12.165,12.165,0,0,0,.191-2.762V16.973a21.146,21.146,0,0,0-.159-3.175h4.7a16.853,16.853,0,0,0,1.81,2.794c1.333,1.842,9.683,13.43,11.016,15.271V16.846a17.054,17.054,0,0,0-.159-3.048h3.62a15.784,15.784,0,0,0-.191,3.048V32.5c0,2.889.127,2.889.191,3.207Z" transform="translate(-15.14 -11.015)"/><rect class="cls-1" x="96.773" width="1.253" height="26.985"/></svg>